<svg width="16" height="16" viewBox="0 0 16 16" fill="none" xmlns="http://www.w3.org/2000/svg">
<path fill-rule="evenodd" clip-rule="evenodd" d="M8.32986 15.9482C8.53572 15.8745 8.71813 15.7284 8.83836 15.5409C8.99327 15.2994 9.15508 14.9222 9.24227 14.5994L9.32358 14.2984L9.33499 12.7185L9.3464 11.1386L11.9986 9C13.8957 7.09719 15.6855 5.75669 15.7437 5.66249C15.7437 5.66249 15.9815 5.16039 15.9951 4.51676C16.0091 3.84991 15.9893 3.76932 15.791 3.68641C15.6928 3.64533 15.5664 3.68363 15.5664 3.68363C15.2088 3.91357 9.23605 6.71169 9.2237 6.71169C9.21135 6.71169 9.17609 6.37735 9.14536 5.96869C9.0934 5.27822 8.89639 3.17781 8.85972 2.92321L8.84349 2.8108L10.0465 2.01593C10.9886 1.39351 11.2598 1.19969 11.2966 1.12251C11.3301 1.05225 11.3436 0.919408 11.3436 0.660051C11.3436 0.224808 11.3053 0.104641 11.1417 0.0265522C11.0305 -0.0264759 11.0242 -0.0253811 9.50946 0.308403L7.98883 0.643533L6.47879 0.308028C4.97054 -0.027071 4.9686 -0.0274143 4.85634 0.0261774C4.69184 0.104672 4.65361 0.224182 4.65361 0.660051C4.65361 1.0509 4.68818 1.17842 4.81876 1.26937C4.85687 1.2959 5.39785 1.65349 6.02093 2.06399L7.1538 2.81036L7.13757 2.92299C7.10087 3.17766 6.90386 5.27785 6.85187 5.96869C6.82114 6.37735 6.78616 6.71169 6.77415 6.71169C6.76215 6.71169 0.430801 3.68385 0.430801 3.68385C0.333077 3.64493 0.206216 3.68641 0.206216 3.68641C0.206216 3.68641 -0.0118961 3.84991 0.00217152 4.51676C0.0157394 5.16039 0.0557232 5.34266 0.253516 5.66249C0.311757 5.75669 2.10184 7.09741 3.99861 9L6.65054 11.1386L6.66236 12.7185L6.67418 14.2984L6.75802 14.6113C6.86312 15.0033 7.12385 15.5364 7.29354 15.7061C7.55763 15.9703 7.98761 16.0707 8.32986 15.9482Z" fill="#9BA6B2"/>
</svg>
