<svg width="24" height="24" viewBox="0 0 24 24" fill="none" xmlns="http://www.w3.org/2000/svg">
<path fill-rule="evenodd" clip-rule="evenodd" d="M14.6339 2.52132C14.5012 2.65604 14.0347 3.34391 14.0347 4.19608C14.0347 4.40011 14.0384 9.28527 14.0347 9.46048C14.0275 9.83218 13.7945 10.3617 13.6025 10.5483C13.4673 10.6802 12.6362 11.4169 12.5624 11.4942L13.0338 11.5015C13.1871 11.3585 14.788 9.97521 14.9555 9.7891C15.1734 9.54769 15.6926 8.93614 15.6926 7.97572L15.6953 2.91743C15.6953 2.15844 16.0582 1.73741 16.2449 1.53417C16.4369 1.32547 17.0677 0.812556 17.1795 0.696527L16.6851 0.68225C16.5655 0.798798 14.7984 2.35338 14.6339 2.52132ZM10.6702 21.664L12.6306 23.3333H13.9434C15.278 23.3333 16.4981 22.7766 17.3031 21.9921C18.1086 21.2067 18.4053 20.152 18.4053 19.1654V16.429C18.4053 15.5093 17.8122 14.9743 17.6479 14.8139C17.5579 14.7267 16.987 14.2018 16.987 14.2018V16.3013C16.987 16.3013 17.6163 16.9346 17.7406 17.0631C18.3222 17.6653 18.3158 18.7617 16.4747 20.5113C16.1522 20.8173 15.2322 21.664 13.9663 21.664H10.6702Z" fill="#C23C40"/>
<path fill-rule="evenodd" clip-rule="evenodd" d="M16.123 10.4334C15.9047 10.6587 15.6951 11.2097 15.6951 11.6954V12.7316H16.7733C17.1919 12.7316 17.7452 12.3596 17.865 12.1629C17.8722 12.1483 17.865 11.1352 17.865 11.1352C17.865 11.1352 18.1417 11.5215 18.4408 11.7255C18.5531 11.5872 19.5344 10.4271 20.3561 10.4206C21.728 10.4097 21.4181 12.0972 20.8576 12.6371C20.676 12.8108 19.8656 13.5355 19.6151 13.7678C18.9669 14.3693 17.8576 14.0814 17.8576 12.5273C17.8576 12.5273 16.667 13.6292 16.4886 13.7751C16.3091 13.921 15.6951 14.5551 15.6951 14.5551V17.2853C15.6951 18.5946 15.2531 19.0338 14.8869 19.4275C14.7444 19.5804 13.232 20.9255 13.0296 21.0714L12.5356 21.0823C12.5356 21.0823 13.4207 20.2979 13.5981 20.1183C13.7999 19.914 14.0351 19.4992 14.0351 18.8087C14.0351 18.6338 14.0127 14.5185 14.0127 14.5185H7.13242C4.73931 14.5185 4.22778 11.9295 4.21287 11.237C4.20914 11.033 4.21287 8.96521 4.21287 8.64438C4.21287 8.21894 3.93353 7.50096 3.48751 7.27955H4.16254C4.24029 7.31147 4.66449 7.47812 4.66449 9.06541C4.66449 9.06541 4.63573 10.9125 4.63573 11.0109C4.63573 11.8156 5.29212 12.7389 6.24063 12.7389L14.0281 12.7316C14.0353 12.5273 14.2444 11.753 14.6185 11.3437C14.8313 11.1129 16.5011 9.62323 16.6921 9.47994L17.1866 9.47449C17.1112 9.54146 16.3036 10.2478 16.123 10.4334ZM18.6799 11.9882C18.6799 11.9882 19.1307 12.5715 19.3456 12.7391C20.1844 13.3951 20.5825 12.6906 20.0196 11.9371C19.7969 11.6401 18.9342 11.7258 18.6799 11.9882Z" fill="#C23C40"/>
<path fill-rule="evenodd" clip-rule="evenodd" d="M10.3296 16.8788C10.3296 17.2453 9.12843 18.2182 9.05813 18.2867C8.97132 17.8919 8.66829 17.4558 7.77304 16.5826L9.08742 15.3014C9.96803 16.1611 10.3296 16.3441 10.3296 16.8788ZM12.609 2.19218C12.8727 2.44916 13.4401 3.14637 13.0995 3.47888C12.7989 3.7722 12.3324 4.23735 12.3324 4.23735C12.3089 4.06967 11.8722 3.66603 11.8722 3.66603C11.8722 3.66603 11.876 4.90341 11.8722 5.05656C11.8573 5.61516 11.6416 5.77454 11.6416 5.77454C11.6416 5.77454 12.7006 6.79881 12.7006 8.11459C12.7006 8.75261 12.7033 9.33951 12.7033 9.46618C12.7033 9.73588 12.6335 9.94457 12.4408 10.1515C12.3457 10.2542 11.3639 11.2157 11.2145 11.3468C10.9301 11.5965 10.6311 11.6383 10.4069 11.6383H6.75636C6.18145 11.6383 5.58976 11.2009 5.58976 10.7635C5.58976 10.6542 5.59722 9.44386 5.59722 9.44386C5.78442 9.65541 5.97481 9.90252 6.43495 9.89603C6.79417 9.89058 7.17176 9.61543 7.27269 9.51706C7.37734 9.41401 10.0341 6.70666 10.0341 6.70666C10.0341 6.70666 8.78971 5.5822 7.97009 5.048C7.57013 4.78661 7.03889 5.11652 6.95874 5.45994C6.70736 6.5369 6.95874 8.15248 6.95874 8.15248L5.95085 7.17234C5.54529 6.77597 5.55994 5.87941 6.04351 5.40802C6.1202 5.33301 6.85675 4.52132 7.79248 4.52132H9.24986C10.2277 4.52132 11.2971 5.47084 11.2971 5.47084C11.2971 5.47084 11.4542 5.30316 11.4542 5.14092C11.4542 4.65241 11.4355 3.33482 11.4355 3.33482C10.6998 2.61788 10.5997 1.87784 10.9522 1.53416C11.6105 0.892759 11.8496 0.666672 11.8496 0.666672C11.8496 0.666672 11.8416 1.44487 12.609 2.19218ZM8.0292 9.34185C7.66945 9.70914 7.60688 9.80103 7.27029 9.99779H11.3815C12.4956 9.99779 12.2741 9.32341 12.0743 8.98363C11.6645 8.28642 10.3709 6.9909 10.3709 6.9909C10.3709 6.9909 8.10403 9.26423 8.0292 9.34185Z" fill="#C23C40"/>
<path fill-rule="evenodd" clip-rule="evenodd" d="M3.34142 12.9896H2.66666C2.66666 12.9896 3.39175 13.3779 3.39175 14.3794V17.5778C3.39175 19.6593 5.15296 21.5838 7.29283 21.5838H9.08014C10.1533 21.5838 10.5298 21.3305 11.1785 20.7693C11.4163 20.5632 11.7254 20.2249 11.8386 20.1022C12.2127 19.6941 12.6105 19.3642 12.6105 18.2924V17.2456C12.6105 16.3407 12.0732 15.9641 11.8133 15.711C11.6469 15.5487 11.1896 15.1228 11.1896 15.1228V17.2671C11.1896 17.2671 11.6402 17.7349 11.8386 17.887C12.7666 18.6013 12.0279 19.8415 11.1673 19.8415C10.9953 19.8415 7.48136 19.8426 7.24197 19.8486C5.79657 19.8836 3.84284 18.6267 3.84284 16.5136V14.7757C3.8431 12.9896 3.34142 12.9896 3.34142 12.9896Z" fill="#C23C40"/>
</svg>
