<svg width="16" height="16" viewBox="0 0 16 16" fill="none" xmlns="http://www.w3.org/2000/svg">
<path fill-rule="evenodd" clip-rule="evenodd" d="M13.3333 8.00009C13.3333 8.36828 13.062 8.66676 12.7273 8.66676H3.27272C2.938 8.66676 2.66666 8.36828 2.66666 8.00009C2.66666 7.6319 2.938 7.33342 3.27272 7.33342H12.7273C13.062 7.33342 13.3333 7.6319 13.3333 8.00009Z" fill="#77818C"/>
<path fill-rule="evenodd" clip-rule="evenodd" d="M7.25842 4.1972C7.49412 4.45862 7.49255 4.88073 7.2549 5.14L4.13323 8.0004L7.25486 10.86C7.49253 11.1192 7.49414 11.5413 7.25845 11.8028C7.02277 12.0642 6.63903 12.066 6.40136 11.8067L2.84581 8.47382C2.73105 8.34865 2.66666 8.17786 2.66666 8.00009C2.66665 7.82232 2.73103 7.65229 2.84577 7.52711L6.40133 4.19333C6.63898 3.93405 7.02271 3.93579 7.25842 4.1972Z" fill="#77818C"/>
</svg>
